<svg width="150" height="150" viewBox="0 0 150 150" fill="none" xmlns="http://www.w3.org/2000/svg">
<rect x="25.5" y="21" width="99" height="105" fill="white"/>
<path d="M11.2026 0C9.82392 0 8.79676 1.12354 8.91922 2.4964L20.5417 132.862C20.6641 134.235 21.8506 135.66 23.1796 136.029L72.4994 149.723C73.828 150.092 76.0016 150.092 77.3305 149.724L126.8 136.007C128.129 135.639 129.317 134.214 129.439 132.841L141.081 2.4964C141.204 1.12354 140.176 0 138.797 0H11.2026ZM116.329 29.8988C116.219 31.1234 116.03 33.2495 115.907 34.6227L115.601 38.0431C115.478 39.4157 115.302 41.3789 115.209 42.4051C115.117 43.4317 115.03 44.2716 115.014 44.2716C114.998 44.2716 113.857 44.2716 112.478 44.2716H77.5065C76.1278 44.2716 74.9885 44.2716 74.9735 44.2716C74.9586 44.2716 73.818 44.2716 72.4393 44.2716H54.0209C52.6421 44.2716 51.615 45.3952 51.7374 46.768L52.8118 58.7769C52.9342 60.1495 54.1629 61.2733 55.5414 61.2733H72.4396C73.8183 61.2733 74.9586 61.2733 74.9738 61.2733C74.989 61.2733 76.1284 61.2733 77.5068 61.2733H106.553C107.931 61.2733 110.065 61.2733 111.293 61.2733C112.521 61.2733 113.436 62.2756 113.324 63.5002C113.212 64.7248 113.021 66.8515 112.899 68.224L109.445 106.94C109.321 108.313 109.166 110.067 109.098 110.838C109.03 111.609 107.887 112.541 106.559 112.909L77.4157 120.99C76.0871 121.358 74.9835 121.663 74.9627 121.667C74.9422 121.672 73.8388 121.374 72.5096 121.005L43.3356 112.91C42.007 112.541 40.8199 111.116 40.6977 109.743L38.8198 88.6655C38.6973 87.2923 39.7257 86.1688 41.1044 86.1688H43.7669C45.1456 86.1688 47.4015 86.1688 48.7799 86.1688H52.7502C54.129 86.1688 55.3565 87.2923 55.4798 88.6655L56.2164 96.9167C56.3388 98.2898 57.5274 99.7069 58.8587 100.066L72.5049 103.752C73.8353 104.111 74.9293 104.405 74.9354 104.405C74.9416 104.405 76.035 104.111 77.3659 103.751L91.0368 100.057C92.3672 99.6976 93.5569 98.2799 93.6803 96.9073L95.1627 80.3759C95.286 79.0027 94.2589 77.8792 92.8802 77.8792H77.5068C76.1281 77.8792 74.9888 77.8792 74.9738 77.8792C74.9589 77.8792 73.8183 77.8792 72.4396 77.8792H40.3611C38.9824 77.8792 37.7548 76.7553 37.6324 75.3828L33.9949 34.623C33.8724 33.2498 33.6826 31.1243 33.5727 29.8991C33.464 28.6745 34.502 27.6722 35.8807 27.6722H72.4396C73.8183 27.6722 74.9586 27.6722 74.9738 27.6722C74.989 27.6722 76.1284 27.6722 77.5068 27.6722H114.022C115.4 27.6716 116.439 28.6736 116.329 29.8988Z" fill="#DD512A"/>
</svg>
